<svg xmlns="http://www.w3.org/2000/svg" data-name="Layer 1" viewBox="0 0 64 64" id="Influencer"><path d="M23 39a3 3 0 0 0 3 3H38a3 3 0 0 0 3-3V17a3 3 0 0 0-3-3H33V10H31v4H26a3 3 0 0 0-3 3zm15 1H26a1 1 0 0 1-1-1H39A1 1 0 0 1 38 40zM30.5 26.5A1.5 1.5 0 1 1 32 28 1.5 1.5 0 0 1 30.5 26.5zM34 31a1 1 0 0 1 1 1v5H29V32a1 1 0 0 1 1-1zm.393-1.96a3.5 3.5 0 1 0-4.786 0A2.993 2.993 0 0 0 27 32v5H25V19H39V37H37V32A2.993 2.993 0 0 0 34.393 29.04zM26 16H38a1 1 0 0 1 1 1H25A1 1 0 0 1 26 16zM4 55a1 1 0 0 1 1-1h6a1 1 0 0 1 1 1v7h2V55a3 3 0 0 0-3-3h-.382a4 4 0 1 0-5.236 0H5a3 3 0 0 0-3 3v7H4zm4-8a2 2 0 1 1-2 2A2 2 0 0 1 8 47zM18 55v7h2V55a1 1 0 0 1 1-1h6a1 1 0 0 1 1 1v7h2V55a3 3 0 0 0-3-3h-.382a4 4 0 1 0-5.236 0H21A3 3 0 0 0 18 55zm6-8a2 2 0 1 1-2 2A2 2 0 0 1 24 47zM40 45a3.983 3.983 0 0 0-2.618 7H37a3 3 0 0 0-3 3v7h2V55a1 1 0 0 1 1-1h6a1 1 0 0 1 1 1v7h2V55a3 3 0 0 0-3-3h-.382A3.983 3.983 0 0 0 40 45zm0 2a2 2 0 1 1-2 2A2 2 0 0 1 40 47zM62 55a3 3 0 0 0-3-3h-.382a4 4 0 1 0-5.236 0H53a3 3 0 0 0-3 3v7h2V55a1 1 0 0 1 1-1h6a1 1 0 0 1 1 1v7h2zm-6-8a2 2 0 1 1-2 2A2 2 0 0 1 56 47z" fill="#c1090b" class="color000000 svgShape"></path><circle cx="32" cy="7" r="1" fill="#c1090b" class="color000000 svgShape"></circle><path d="M27.765 4.347a4.983 4.983 0 0 0 0 5.306l1.691-1.066a2.99 2.99 0 0 1 0-3.174zM36.235 9.653a4.983 4.983 0 0 0 0-5.306L34.544 5.413a2.99 2.99 0 0 1 0 3.174zM24.372 2.22a9.013 9.013 0 0 0 0 9.56l1.7-1.06a7.018 7.018 0 0 1 0-7.44zM39.628 11.78a9.013 9.013 0 0 0 0-9.56l-1.7 1.06a7.018 7.018 0 0 1 0 7.44z" fill="#c1090b" class="color000000 svgShape"></path><rect width="2" height="2" x="7" y="40" fill="#c1090b" class="color000000 svgShape"></rect><rect width="2" height="2" x="7" y="36" fill="#c1090b" class="color000000 svgShape"></rect><rect width="2" height="2" x="7" y="32" fill="#c1090b" class="color000000 svgShape"></rect><rect width="2" height="2" x="7" y="28" fill="#c1090b" class="color000000 svgShape"></rect><rect width="2" height="2" x="11" y="28" fill="#c1090b" class="color000000 svgShape"></rect><rect width="2" height="2" x="15" y="28" fill="#c1090b" class="color000000 svgShape"></rect><rect width="2" height="2" x="19" y="28" fill="#c1090b" class="color000000 svgShape"></rect><rect width="2" height="2" x="55" y="40" fill="#c1090b" class="color000000 svgShape"></rect><rect width="2" height="2" x="55" y="36" fill="#c1090b" class="color000000 svgShape"></rect><rect width="2" height="2" x="55" y="32" fill="#c1090b" class="color000000 svgShape"></rect><rect width="2" height="2" x="55" y="28" fill="#c1090b" class="color000000 svgShape"></rect><rect width="2" height="2" x="51" y="28" fill="#c1090b" class="color000000 svgShape"></rect><rect width="2" height="2" x="47" y="28" fill="#c1090b" class="color000000 svgShape"></rect><rect width="2" height="2" x="43" y="28" fill="#c1090b" class="color000000 svgShape"></rect></svg>