<svg xmlns="http://www.w3.org/2000/svg" enable-background="new 0 0 132 132" viewBox="0 0 132 132" id="Algorithm"><rect width="30.166" height="2" x="44.83" y="27.097" fill="#c1090b" class="color000000 svgShape"></rect><path d="M59.9132347,18.8237705c3.019043,0,5.4750938-2.4560547,5.4750938-5.4755859
		c0-3.0185547-2.4560509-5.4746094-5.4750938-5.4746094c-3.0185547,0-5.4746094,2.4560547-5.4746094,5.4746094
		C54.4386253,16.3677158,56.89468,18.8237705,59.9132347,18.8237705z M59.9132347,9.8735752
		c1.9160156,0,3.4750977,1.5585938,3.4750977,3.4746094s-1.559082,3.4755859-3.4750977,3.4755859
		s-3.4746094-1.5595703-3.4746094-3.4755859S57.9972191,9.8735752,59.9132347,9.8735752z" fill="#c1090b" class="color000000 svgShape"></path><path d="M113.597496,54.3022842l0.883606-1.7050781c0.8174438-1.5776367,0.4217529-3.4550781-0.8289185-4.6035156
		l1.3972778-2.6953125c0.9462891-1.828125,0.2299805-4.0849609-1.597168-5.03125
		c-1.8447723-0.9534569-4.0880966-0.2253342-5.03125,1.5966797l-1.3964844,2.6948242
		c-1.1148605-0.244545-2.2134476-0.0270042-3.1669922,0.7084961V28.0093174c0-2.7255859-2.2265625-4.9433594-4.9638672-4.9433594
		H82.6191635c-1.1156616-4.8520508-5.4351807-8.4946289-10.6077881-8.5507813v-0.9003906
		c0-6.6455078-4.9545898-12.1748047-11.2792931-12.5878906c-6.9348831-0.4625183-12.894043,4.982029-12.894043,12.0488281v1.4384766
		c-5.1829834,0.0458984-9.5130615,3.6923828-10.6303101,8.5517578h-16.29352c-2.7260742,0-4.9438467,2.2177734-4.9438467,4.9433594
		v98.0263672c0,2.7373123,2.2177725,4.9648514,4.9438467,4.9648514h77.9794922c2.7373047,0,4.9638672-2.2275391,4.9638672-4.9648514
		V84.0298233h-2v42.0058594c0,1.6347656-1.3295898,2.9648514-2.9638672,2.9648514H20.9142094
		c-1.6230469,0-2.9438477-1.3300858-2.9438477-2.9648514V28.0093174c0-1.6230469,1.3208008-2.9433594,2.9438477-2.9433594
		h16.0190449c-0.0148201,0.4887066-0.0187569-0.4800968-0.0141602,6.2587891H25.2081547
		c-0.2651367,0-0.5195313,0.1054688-0.7070313,0.2929688s-0.2929688,0.4414043-0.2929688,0.7070293l0.0053711,89.4169922
		c0,0.5527344,0.4477539,1,1,1h69.3706055c0.5522461,0,1-0.4472656,1-1V89.0635147
		c1.5579605-3.006485,15.38517-29.6896286,17.0932617-32.9858398c1.3319397,1.0127525,1.7307892,2.8172188,0.9663086,4.2929688
		l-7.0112305,13.5292969l1.7753906,0.9199219l7.0112305-13.5292969
		C116.6434631,58.9296722,116.0211105,55.9115753,113.597496,54.3022842z M110.196434,42.7837296
		c0.4359055-0.8418159,1.4765244-1.1862259,2.3359375-0.7412109c0.8476563,0.4394531,1.1801758,1.4873047,0.7412109,2.3359375
		l-1.3286133,2.5634766l-0.4616089-0.2392578l-2.6150513-1.3554688L110.196434,42.7837296z M107.0602036,46.6626358
		l4.8520508,2.5146484c0.9077148,0.4707031,1.2636719,1.5917969,0.793457,2.5L99.9020004,76.3852921
		c-0.2931213-0.1519012-8.6270676-4.4707642-8.1445313-4.2207031l12.8037109-24.7080078
		C105.0306244,46.5479202,106.1516724,46.1907234,107.0602036,46.6626358z M82.8946762,25.065958h15.9990234
		c1.6342773,0,2.9638672,1.3203125,2.9638672,2.9433594v20.3173809l-6.2788086,12.1166992V32.3247452
		c0-0.5527325-0.4477539-0.9999981-1-0.9999981H82.9078598v-5.7919922
		C82.9078598,25.4893875,82.8982773,25.1659794,82.8946762,25.065958z M47.9371605,16.5142002h0.9008789
		c0.5522461,0,1-0.4472656,1-1v-2.4384766c0-5.855176,4.9029427-10.4160089,10.7631836-10.0527344
		c5.2768517,0.3447266,9.4101524,4.9970703,9.4101524,10.5917969v1.8994141c0,0.5527344,0.4477539,1,1,1h0.8779297
		c5.0191269,0,9.0126953,4.1096992,9.0126953,9.0175781v6.7929668c0,0.514698-0.4209137,0.9609375-0.9819336,0.9609375h-40.032711
		c-0.5209961,0-0.9609375-0.4404297-0.9609375-0.9609375v-6.7929668
		C38.9264183,20.5400352,42.9861946,16.5142002,47.9371605,16.5142002z M93.5841293,120.7417374H26.2135258l-0.0053711-87.4169922
		h10.8920918c0.4104614,1.1379204,1.5545082,1.9658203,2.7929688,1.9658203h40.0400352
		c1.2498016,0,2.3978729-0.8382378,2.7983398-1.9658203h10.847168v30.9785156
		c-6.408783,12.3667374-13.3598404,25.7798843-17.0336914,32.8691406c-0.2617188,0.5048828-0.3994141,1.0722656-0.3979492,1.6416016
		v0.0009766l0.034729,11.1591797l-1.0708618,1.7167969l1.6972656,1.0585938l1.1172485-1.7910156l9.2025757-6.4521484
		c0.4658203-0.3261719,0.8505859-0.7666016,1.112793-1.2724609l5.3432617-10.3110352V120.7417374z M86.465477,102.3130264
		c-0.1142578,0.2216797-0.2822266,0.4130859-0.4853516,0.5556641l-7.8032227,5.4716797l-0.0297852-9.5302734
		c-0.0004883-0.2490234,0.0595703-0.4960938,0.1733398-0.7167969L90.837059,73.9399796
		c0.293129,0.1519089,8.6270752,4.4707718,8.1445313,4.2207031L86.465477,102.3130264z" fill="#c1090b" class="color000000 svgShape"></path><rect width="13.59" height="2" x="40.132" y="112.484" fill="#c1090b" class="color000000 svgShape"></rect><rect width="23.913" height="2" x="40.132" y="105.342" fill="#c1090b" class="color000000 svgShape"></rect><rect width="23.913" height="2" x="40.132" y="98.202" fill="#c1090b" class="color000000 svgShape"></rect><path d="M63.8902855,81.8559952h-2.9941406V77.001503h14.8090782c0.5522461,0,1-0.4472656,1-1v-5.8574219h2.9892578
		c0.5522461,0,1-0.4472656,1-1v-6.4414063c0-0.5527344-0.4477539-1-1-1h-2.980957V55.845253c0-0.5527344-0.4477539-1-1-1H60.9142113
		v-4.8544922h2.9760742c0.5522423,0,0.9999962-0.4472656,0.9999962-1V42.548378c0-0.5527344-0.4477539-1-0.9999962-1h-7.9536133
		c-0.5522461,0-1,0.4472656-1,1v6.4423828c0,0.5527344,0.4477539,1,1,1h2.9775391v4.8544922H44.104641c-0.5522461,0-1,0.4472656-1,1
		v5.8574219h-2.972168c-0.5522461,0-1,0.4472656-1,1v6.4414063c0,0.5527344,0.4477539,1,1,1h7.953125c0.5522461,0,1-0.4472656,1-1
		v-6.4414063c0-0.5527344-0.4477539-1-1-1h-2.980957V56.845253h13.8095703v4.8574219h-2.9775391c-0.5522461,0-1,0.4472656-1,1
		v6.4414063c0,0.5527344,0.4477539,1,1,1h7.9536133c0.5522423,0,0.9999962-0.4472656,0.9999962-1v-6.4414063
		c0-0.5527344-0.4477539-1-0.9999962-1h-2.9760742V56.845253h13.7993126v4.8574219h-2.972168c-0.5522461,0-1,0.4472656-1,1
		v6.4414063c0,0.5527344,0.4477539,1,1,1h2.9638672v4.8574219H59.8961449c-0.5522461,0-1,0.4472656-1,1v5.8544922h-2.9594727
		c-0.5522461,0-1,0.4472656-1,1v6.4414063c0,0.5527344,0.4477539,1,1,1h7.9536133c0.5522423,0,0.9999962-0.4472656,0.9999962-1
		v-6.4414063C64.8902817,82.3032608,64.4425278,81.8559952,63.8902855,81.8559952z M56.9366722,43.548378h5.9536133v4.4423828
		h-5.9536133V43.548378z M47.085598,68.1440811h-5.953125v-4.4414063h5.953125V68.1440811z M62.8902855,68.1440811h-5.9536133
		v-4.4414063h5.9536133V68.1440811z M72.7413559,63.7026749h5.953125v4.4414063h-5.953125V63.7026749z M62.8902855,88.2974014
		h-5.9536133v-4.4414063h5.9536133V88.2974014z" fill="#c1090b" class="color000000 svgShape"></path></svg>