<svg xmlns="http://www.w3.org/2000/svg" viewBox="0 0 32 32" id="DigitalMarketing"><path fill="#c1090b" d="M3.5 30h25c1.379 0 2.5-1.121 2.5-2.5a.5.5 0 0 0-.5-.5h-11a.5.5 0 0 0 0 1h10.414c-.206.582-.762 1-1.414 1h-25a1.502 1.502 0 0 1-1.414-1H12.5a.5.5 0 0 0 0-1h-11a.5.5 0 0 0-.5.5C1 28.879 2.121 30 3.5 30zm25-4a.5.5 0 0 1-.5-.5v-16a.5.5 0 0 0-.5-.5.5.5 0 0 1 0-1c.827 0 1.5.673 1.5 1.5v16a.5.5 0 0 1-.5.5zm-25 0a.5.5 0 0 1-.5-.5v-16C3 8.673 3.673 8 4.5 8h7a.5.5 0 0 1 0 1h-7a.5.5 0 0 0-.5.5v16a.5.5 0 0 1-.5.5z" class="color263238 svgShape"></path><path fill="#c1090b" d="M18.5 25h-12a.5.5 0 0 1-.5-.5v-9a.5.5 0 0 1 .5-.5h12a.5.5 0 0 1 .5.5v9a.5.5 0 0 1-.5.5zM7 24h11v-8H7v8z" class="color263238 svgShape"></path><path fill="#c1090b" d="M20.5 18a.5.5 0 0 1-.5-.5V14h-5.5c-.827 0-1.5-.673-1.5-1.5v-8c0-.827.673-1.5 1.5-1.5h10c.827 0 1.5.673 1.5 1.5v8c0 .827-.673 1.5-1.5 1.5h-1.223l-2.354 3.765A.497.497 0 0 1 20.5 18zm-6-14a.5.5 0 0 0-.5.5v8a.5.5 0 0 0 .5.5h6a.5.5 0 0 1 .5.5v2.257l1.576-2.521A.5.5 0 0 1 23 13h1.5a.5.5 0 0 0 .5-.5v-8a.5.5 0 0 0-.5-.5h-10zm-4 18.5a.497.497 0 0 1-.5-.5v-4c0-.169.085-.327.228-.419s.321-.105.476-.038l4.5 2a.5.5 0 0 1 0 .914l-4.5 2a.522.522 0 0 1-.204.043zm.5-3.73v2.461L13.769 20 11 18.77z" class="color263238 svgShape"></path><circle cx="10.5" cy="6.5" r=".5" fill="#c1090b" class="color263238 svgShape"></circle><circle cx="8.5" cy="6.5" r=".5" fill="#c1090b" class="color263238 svgShape"></circle><circle cx="6.5" cy="6.5" r=".5" fill="#c1090b" class="color263238 svgShape"></circle><path fill="#c1090b" d="M20 10h-4a.5.5 0 0 1 0-1h4a.5.5 0 0 1 0 1zM23 8h-7a.5.5 0 0 1 0-1h7a.5.5 0 0 1 0 1z" class="color263238 svgShape"></path></svg>