<svg xmlns="http://www.w3.org/2000/svg" data-name="Layer 1" viewBox="0 0 64 64" id="creativity"><path d="M32 3c-12.056 0-21.5 8.785-21.5 20 0 5.325 2.1 12.374 5.479 18.4 1.839 3.277 3.935 7.515 4.008 11.395A2.96 2.96 0 0 0 19.78 57 2.987 2.987 0 0 0 22 62h20a2.987 2.987 0 0 0 2.22-5 2.96 2.96 0 0 0-.207-4.209c.073-3.88 2.169-8.118 4.008-11.395C51.4 35.374 53.5 28.325 53.5 23c0-11.215-9.444-20-21.5-20zm10 51a1 1 0 0 1 0 2H22a1 1 0 0 1 0-2zm0 6H22a1 1 0 0 1 0-2h20a1 1 0 0 1 0 2zm4.277-19.583C44.436 43.7 42.343 47.907 42.038 52H33v-6h-2v6h-9.038c-.3-4.093-2.4-8.3-4.239-11.583C14.55 34.763 12.5 27.926 12.5 23c0-10.093 8.565-18 19.5-18s19.5 7.907 19.5 18c0 4.926-2.05 11.763-5.223 17.417z" fill="#c1090b" class="color000000 svgShape"></path><path d="M42.138 14.293A6.883 6.883 0 0 0 35.379 8 6.569 6.569 0 0 0 32 8.954 6.569 6.569 0 0 0 28.621 8a6.883 6.883 0 0 0-6.759 6.293A6.947 6.947 0 0 0 17 21a7.123 7.123 0 0 0 1.225 4A7.123 7.123 0 0 0 17 29a6.947 6.947 0 0 0 4.862 6.707A6.883 6.883 0 0 0 28.621 42 6.569 6.569 0 0 0 32 41.046a6.569 6.569 0 0 0 3.379.954 6.883 6.883 0 0 0 6.759-6.293A6.947 6.947 0 0 0 47 29a7.123 7.123 0 0 0-1.225-4A7.123 7.123 0 0 0 47 21a6.947 6.947 0 0 0-4.862-6.707zM23.911 35.886A4 4 0 0 0 23 28v2a2 2 0 0 1 .162 3.984.865.865 0 0 0-.162-.059A4.921 4.921 0 0 1 19 29a5.1 5.1 0 0 1 1.24-3.345 1 1 0 0 0 0-1.31A5.1 5.1 0 0 1 19 21a4.921 4.921 0 0 1 4-4.925A1.1 1.1 0 0 0 23.828 15a4.905 4.905 0 0 1 4.793-5 4.593 4.593 0 0 1 2.379.665V17a2 2 0 0 1-4 0h-2a4 4 0 0 0 4 4 3.959 3.959 0 0 0 2-.556v18.891a4.593 4.593 0 0 1-2.379.665 4.855 4.855 0 0 1-4.71-4.114zM43.76 25.655A5.1 5.1 0 0 1 45 29a4.921 4.921 0 0 1-4 4.925A1.1 1.1 0 0 0 40.172 35a4.905 4.905 0 0 1-4.793 5A4.593 4.593 0 0 1 33 39.335V28a2 2 0 0 1 4 0h2a4 4 0 0 0-4-4 3.959 3.959 0 0 0-2 .556V10.665A4.593 4.593 0 0 1 35.379 10a4.855 4.855 0 0 1 4.71 4.114A4 4 0 0 0 41 22v-2a2 2 0 0 1-.162-3.984.865.865 0 0 0 .159.059A4.921 4.921 0 0 1 45 21a5.1 5.1 0 0 1-1.24 3.345 1 1 0 0 0 0 1.31zM61 6a3 3 0 0 1-3-3 1 1 0 0 0-2 0 3 3 0 0 1-3 3 1 1 0 0 0 0 2 3 3 0 0 1 3 3 1 1 0 0 0 2 0 3 3 0 0 1 3-3 1 1 0 0 0 0-2zm-4 2a5.07 5.07 0 0 0-1-1 5.07 5.07 0 0 0 1-1 5.07 5.07 0 0 0 1 1 5.07 5.07 0 0 0-1 1zM3 8a3 3 0 0 1 3 3 1 1 0 0 0 2 0 3 3 0 0 1 3-3 1 1 0 0 0 0-2 3 3 0 0 1-3-3 1 1 0 0 0-2 0 3 3 0 0 1-3 3 1 1 0 0 0 0 2zm4-2a5.07 5.07 0 0 0 1 1 5.07 5.07 0 0 0-1 1 5.07 5.07 0 0 0-1-1 5.07 5.07 0 0 0 1-1zM7 44a1 1 0 0 0 2 0 3 3 0 0 1 3-3 1 1 0 0 0 0-2 3 3 0 0 1-3-3 1 1 0 0 0-2 0 3 3 0 0 1-3 3 1 1 0 0 0 0 2 3 3 0 0 1 3 3zm1-5a5.07 5.07 0 0 0 1 1 5.07 5.07 0 0 0-1 1 5.07 5.07 0 0 0-1-1 5.07 5.07 0 0 0 1-1zM59 45a3 3 0 0 1-3-3 1 1 0 0 0-2 0 3 3 0 0 1-3 3 1 1 0 0 0 0 2 3 3 0 0 1 3 3 1 1 0 0 0 2 0 3 3 0 0 1 3-3 1 1 0 0 0 0-2zm-4 2a5.07 5.07 0 0 0-1-1 5.07 5.07 0 0 0 1-1 5.07 5.07 0 0 0 1 1 5.07 5.07 0 0 0-1 1z" fill="#c1090b" class="color000000 svgShape"></path></svg>