<svg xmlns="http://www.w3.org/2000/svg" data-name="Layer 1" viewBox="0 0 64 64" id="IntegrityManagement"><path d="M61 27h-2.463A27.051 27.051 0 0 0 54.3 16.776l1.747-1.747a1 1 0 0 0 0-1.414l-5.662-5.657a1 1 0 0 0-1.414 0l-1.747 1.747A27.051 27.051 0 0 0 37 5.463V3a1 1 0 0 0-1-1h-8a1 1 0 0 0-1 1v2.463a27.051 27.051 0 0 0-10.224 4.242l-1.747-1.747a1 1 0 0 0-1.414 0l-5.657 5.657a1 1 0 0 0 0 1.414l1.747 1.747A27.051 27.051 0 0 0 5.463 27H3a1 1 0 0 0-1 1v8a1 1 0 0 0 1 1h2.463a27.051 27.051 0 0 0 4.242 10.224l-1.747 1.747a1 1 0 0 0 0 1.414l5.657 5.657a1 1 0 0 0 1.414 0l1.747-1.742A27.051 27.051 0 0 0 27 58.537V61a1 1 0 0 0 1 1h8a1 1 0 0 0 1-1v-2.463A27.051 27.051 0 0 0 47.224 54.3l1.747 1.747a1 1 0 0 0 1.414 0l5.657-5.657a1 1 0 0 0 0-1.414L54.3 47.224A27.051 27.051 0 0 0 58.537 37H61a1 1 0 0 0 1-1v-8a1 1 0 0 0-1-1Zm-1 8h-2.307a1 1 0 0 0-.988.847 24.985 24.985 0 0 1-4.52 10.9 1 1 0 0 0 .1 1.3l1.635 1.636-4.242 4.237-1.636-1.635a1 1 0 0 0-1.3-.1 24.985 24.985 0 0 1-10.9 4.52 1 1 0 0 0-.847.988V60H29v-2.307a1 1 0 0 0-.847-.988 24.985 24.985 0 0 1-10.9-4.52 1 1 0 0 0-1.3.1l-1.631 1.635-4.242-4.242 1.635-1.636a1 1 0 0 0 .1-1.3 24.985 24.985 0 0 1-4.52-10.9A1 1 0 0 0 6.307 35H4v-6h2.307a1 1 0 0 0 .988-.847 24.985 24.985 0 0 1 4.52-10.9 1 1 0 0 0-.1-1.3l-1.635-1.631 4.242-4.242 1.636 1.635a1 1 0 0 0 1.3.1 24.985 24.985 0 0 1 10.9-4.52A1 1 0 0 0 29 6.307V4h6v2.307a1 1 0 0 0 .847.988 24.985 24.985 0 0 1 10.9 4.52 1 1 0 0 0 1.3-.1l1.636-1.635 4.242 4.242-1.635 1.636a1 1 0 0 0-.1 1.3 24.985 24.985 0 0 1 4.52 10.9 1 1 0 0 0 .988.847H60Z" fill="#c1090b" class="color000000 svgShape"></path><path d="M32 50a17.993 17.993 0 0 1-2.2-35.852L28.4 15.2l1.2 1.6 4-3a1 1 0 0 0 0-1.6l-4-3-1.2 1.6 1.727 1.3A20 20 0 1 0 52 32h-2a18.021 18.021 0 0 1-18 18Z" fill="#c1090b" class="color000000 svgShape"></path><path d="M31.1 20.559a7.939 7.939 0 0 1-7.1 4.567c-.082 0-.161-.006-.241-.012l-.174-.011a1.006 1.006 0 0 0-1 .676A10.822 10.822 0 0 0 22 29.272c0 5.518 8.863 15.937 9.24 16.378a1 1 0 0 0 1.52 0c.377-.441 9.24-10.86 9.24-16.378a10.751 10.751 0 0 0-.379-2.8l2.024-1.709-1.29-1.528-2.232 1.885c-.041 0-.081.006-.123.006a7.939 7.939 0 0 1-7.1-4.567 1.041 1.041 0 0 0-1.8 0Zm6.911 6.341-6.6 5.571-1.552-2.62-1.72 1.02 2.153 3.636a1 1 0 0 0 .694.476.934.934 0 0 0 .167.014 1 1 0 0 0 .645-.236l8.085-6.825A8.673 8.673 0 0 1 40 29.272c0 3.606-5.218 10.752-8 14.166-2.782-3.414-8-10.56-8-14.166a8.724 8.724 0 0 1 .271-2.149A9.829 9.829 0 0 0 32 22.945a9.891 9.891 0 0 0 6.011 3.955Z" fill="#c1090b" class="color000000 svgShape"></path></svg>