<svg xmlns="http://www.w3.org/2000/svg" viewBox="0 0 64 64" id="SocialMediaMarketing"><path d="M48 43a1 1 0 0 0-1 1v4H20a1 1 0 0 0 0 2h27v7a3 3 0 0 1-3 3H20a3 3 0 0 1-3-3V15a3 3 0 0 1 3-3h19.06a1 1 0 0 0 0-2H20a5 5 0 0 0-5 5v42a5 5 0 0 0 5 5h24a5 5 0 0 0 5-5V44a1 1 0 0 0-1-1Z" fill="#c1090b" class="color000000 svgShape"></path><circle cx="22" cy="15" r="1" fill="#c1090b" class="color000000 svgShape"></circle><circle cx="26" cy="15" r="1" fill="#c1090b" class="color000000 svgShape"></circle><path d="M28 54h8a1 1 0 0 0 0-2h-8a3 3 0 0 0 0 6h8a1 1 0 0 0 0-2h-8a1 1 0 0 1 0-2zm22-27h-8a3 3 0 0 0-3 3v8a3 3 0 0 0 3 3h8a3 3 0 0 0 3-3v-8a3 3 0 0 0-3-3zm1 11a1 1 0 0 1-1 1h-8a1 1 0 0 1-1-1v-8a1 1 0 0 1 1-1h8a1 1 0 0 1 1 1z" fill="#c1090b" class="color000000 svgShape"></path><path d="M46 31a3 3 0 1 0 3 3 3 3 0 0 0-3-3zm0 4a1 1 0 1 1 1-1 1 1 0 0 1-1 1zm-15.55-6.89-6-3A1 1 0 0 0 23 26v6a1 1 0 0 0 .47.85A1 1 0 0 0 24 33a1 1 0 0 0 .45-.11l6-3a1 1 0 0 0 0-1.78zM25 30.38v-2.76L27.76 29z" fill="#c1090b" class="color000000 svgShape"></path><path d="M35 34V24a3 3 0 0 0-3-3H22a3 3 0 0 0-3 3v10a3 3 0 0 0 3 3h10a3 3 0 0 0 3-3zm-14 0V24a1 1 0 0 1 1-1h10a1 1 0 0 1 1 1v10a1 1 0 0 1-1 1H22a1 1 0 0 1-1-1zM52 2a10 10 0 1 0 10 10A10 10 0 0 0 52 2zm4 11.68v-3.36c2.67.46 4 1.32 4 1.68s-1.38 1.22-4 1.68zM52 20c-.36 0-1.22-1.38-1.68-4.05.56 0 1.12.05 1.68.05s1.12 0 1.68-.05C53.22 18.62 52.36 20 52 20zm0-6c-.69 0-1.33 0-1.93-.07 0-.6-.07-1.24-.07-1.93s0-1.33.07-1.93c.6 0 1.24-.07 1.93-.07s1.33 0 1.93.07c0 .6.07 1.24.07 1.93s0 1.33-.07 1.93c-.6.07-1.24.07-1.93.07zm-8-2c0-.36 1.38-1.22 4-1.68v3.36c-2.62-.46-4-1.32-4-1.68zm8-8c.36 0 1.22 1.38 1.68 4.05C53.12 8 52.56 8 52 8s-1.12 0-1.68.05C50.78 5.38 51.64 4 52 4zm7.51 5.24a15.23 15.23 0 0 0-3.77-1 15.23 15.23 0 0 0-1-3.77 8.07 8.07 0 0 1 4.77 4.77zM49.24 4.49a15.23 15.23 0 0 0-1 3.77 15.23 15.23 0 0 0-3.77 1 8.07 8.07 0 0 1 4.77-4.77zm-4.75 10.27a15.23 15.23 0 0 0 3.77 1 15.23 15.23 0 0 0 1 3.77 8.07 8.07 0 0 1-4.77-4.77zm10.27 4.75a15.23 15.23 0 0 0 1-3.77 15.23 15.23 0 0 0 3.77-1 8.07 8.07 0 0 1-4.77 4.77zM12 33a5 5 0 0 0-5 5v2H5a1 1 0 0 0 0 2h2v4a1 1 0 0 0 2 0v-4h2a1 1 0 0 0 0-2H9v-2a3 3 0 0 1 3-3 1 1 0 0 0 0-2zm-.51-23.83a1 1 0 0 0 .7-1.71 5 5 0 0 0-7.07 0 1 1 0 0 0 1.42 1.42 3 3 0 0 1 4.24 0 1 1 0 0 0 .71.29z" fill="#c1090b" class="color000000 svgShape"></path><path d="M15 4.64a9 9 0 0 0-12.73 0 1 1 0 0 0 0 1.41 1 1 0 0 0 1.42 0 7 7 0 0 1 9.9 0 1 1 0 0 0 1.41 0 1 1 0 0 0 0-1.41Z" fill="#c1090b" class="color000000 svgShape"></path><circle cx="8.66" cy="11" r="1" fill="#c1090b" class="color000000 svgShape"></circle><path d="M8.66 21a1 1 0 0 0 1-1v-5a1 1 0 0 0-2 0v5a1 1 0 0 0 1 1zM30 40h-8a1 1 0 0 0 0 2h8a1 1 0 0 0 0-2zm0 4h-5a1 1 0 0 0 0 2h5a1 1 0 0 0 0-2zm8-18a1 1 0 0 0 1-1v-6a2 2 0 0 0-2-2h-7a1 1 0 0 0 0 2h7v6a1 1 0 0 0 1 1z" fill="#c1090b" class="color000000 svgShape"></path></svg>