<svg xmlns="http://www.w3.org/2000/svg" data-name="Layer 1" viewBox="0 0 64 64" id="Marketing"><path d="M54 7a1.001 1.001 0 0 1 1 1h2a2.995 2.995 0 0 0-2-2.816V4h-2v1.184A2.992 2.992 0 0 0 54 11a1 1 0 1 1-1 1h-2a2.995 2.995 0 0 0 2 2.816v1.076h2v-1.076A2.993 2.993 0 0 0 54 9a1 1 0 1 1 0-2zM1.034 56.262a8.927 8.927 0 0 0 2.477 4.164 1 1 0 0 0 1.177.149l.868-.485a.142.142 0 0 1 .098-.018 12.114 12.114 0 0 0 1.14.666v.968a1 1 0 0 0 .742.966 9.563 9.563 0 0 0 2.47.328h.113a9.57 9.57 0 0 0 2.345-.331 1 1 0 0 0 .742-.967l.007-.998a7.643 7.643 0 0 0 1.131-.63.133.133 0 0 1 .1.016l.863.483a1 1 0 0 0 1.177-.15 8.937 8.937 0 0 0 2.482-4.16 1 1 0 0 0-.479-1.132l-.9-.503a6.813 6.813 0 0 0 0-1.256l.9-.503a1 1 0 0 0 .479-1.131 8.933 8.933 0 0 0-2.477-4.164 1 1 0 0 0-1.177-.149l-.868.485a.147.147 0 0 1-.098.018 12.149 12.149 0 0 0-1.14-.666v-.968a1 1 0 0 0-.742-.966 9.252 9.252 0 0 0-2.583-.327 9.57 9.57 0 0 0-2.345.33 1 1 0 0 0-.742.967l-.007.998a7.643 7.643 0 0 0-1.131.63.133.133 0 0 1-.1-.016l-.863-.482a1 1 0 0 0-1.177.148 8.936 8.936 0 0 0-2.482 4.162 1 1 0 0 0 .479 1.131l.9.503a6.813 6.813 0 0 0 0 1.256l-.9.503a1 1 0 0 0-.479 1.13zM4.48 54.98a4.968 4.968 0 0 1 0-1.96 1 1 0 0 0-.495-1.06l-.779-.436a6.937 6.937 0 0 1 1.189-1.972l.187.104a2.114 2.114 0 0 0 2.191-.071 5.642 5.642 0 0 1 .836-.465 2.034 2.034 0 0 0 1.185-1.858v-.16a7.186 7.186 0 0 1 1.112-.101 7.872 7.872 0 0 1 1.3.1v.161a2.034 2.034 0 0 0 1.185 1.858 5.601 5.601 0 0 1 .836.466 2.117 2.117 0 0 0 2.192.07l.19-.106a6.923 6.923 0 0 1 1.185 1.974l-.78.435a1 1 0 0 0-.494 1.06 4.968 4.968 0 0 1 0 1.961 1 1 0 0 0 .495 1.06l.779.436a6.937 6.937 0 0 1-1.188 1.972l-.188-.105a2.108 2.108 0 0 0-2.191.072 5.642 5.642 0 0 1-.836.465 2.034 2.034 0 0 0-1.185 1.858v.16a7.186 7.186 0 0 1-1.112.101 6.853 6.853 0 0 1-1.3-.1v-.161A2.034 2.034 0 0 0 7.61 58.88a5.65 5.65 0 0 1-.836-.466 2.112 2.112 0 0 0-2.192-.07l-.19.106a6.919 6.919 0 0 1-1.185-1.974l.78-.436a1 1 0 0 0 .494-1.06z" fill="#c1090b" class="color000000 svgShape"></path><path d="M10 58a4 4 0 1 0-4-4 4.005 4.005 0 0 0 4 4zm0-6a2 2 0 1 1-2 2 2.002 2.002 0 0 1 2-2zM54 1a9 9 0 1 0 9 9 9.01 9.01 0 0 0-9-9zm0 16a7 7 0 1 1 7-7 7.008 7.008 0 0 1-7 7zM51 56h2v3h-2zM57 51h2v8h-2zM54 53h2v6h-2zM22 28v6a1 1 0 0 0 .913.996l1.087.095V41a1 1 0 0 0 1 1h3a1 1 0 0 0 1-1v-5.473l.525.046a14.902 14.902 0 0 1 5.856 2.022l1.801 1.08A1.2 1.2 0 0 0 39 37.648V23.353a1.2 1.2 0 0 0-1.817-1.029l-2.656 1.593a14.983 14.983 0 0 1-4.05 1.683l-7.659 1.417A1 1 0 0 0 22 28Zm13-2.061c.185-.102.374-.198.556-.307L37 24.766v11.468l-.59-.354c-.459-.275-.931-.52-1.41-.75ZM27 40h-1v-4.734l1 .087Zm-3-11.168 6.872-1.271a1.23 1.23 0 0 0 .061-.013 16.99 16.99 0 0 0 2.067-.67v7.448a17.174 17.174 0 0 0-3.264-.741L24 33.083ZM42 30h4v2h-4zM40.553 26.106l4-2 .894 1.788-4 2zM40.553 35.894l.894-1.788 4 2-.894 1.788z" fill="#c1090b" class="color000000 svgShape"></path><path d="M61 47H49a2.002 2.002 0 0 0-2 2v12a2.002 2.002 0 0 0 2 2h12a2.002 2.002 0 0 0 2-2V49a2.002 2.002 0 0 0-2-2zM49 61V49h12l.001 12zM3 12h2v2a2.002 2.002 0 0 0 2 2h2v3a1 1 0 0 0 1.625.78L15.35 16H19a2.002 2.002 0 0 0 2-2V7a2.002 2.002 0 0 0-2-2h-3V3a2.002 2.002 0 0 0-2-2H3a2.002 2.002 0 0 0-2 2v7a2.002 2.002 0 0 0 2 2zm16-5v7h-4a.998.998 0 0 0-.625.22L11 16.92V15a1 1 0 0 0-1-1H7V7zM3 3h11v2H7a2.002 2.002 0 0 0-2 2v3H3zM9 22h2v21H9zM21 53h24v2H21zM53 21h2v24h-2zM23 9h20v2H23z" fill="#c1090b" class="color000000 svgShape"></path></svg>