<svg xmlns="http://www.w3.org/2000/svg" viewBox="0 0 66 66" id="ReputationManagement"><path d="M61.6 57.7c-.4 0-.9.1-1.2.3l-6-6c.2-.4.3-.8.3-1.3 0-1.5-1.2-2.7-2.7-2.7-1.5 0-2.7 1.2-2.7 2.7 0 .5.1.9.3 1.3l-6 6c-.9-.5-1.9-.4-2.6.1L35.8 54c.2-.3.2-.7.2-1.1 0-1.5-1.2-2.7-2.7-2.7-1.5 0-2.7 1.2-2.7 2.7 0 .4.1.9.3 1.2l-5.2 4.1c-.4-.3-1-.5-1.6-.5-.4 0-.8.1-1.1.3l-5.9-6c.2-.4.4-.8.4-1.3 0-1.5-1.2-2.7-2.7-2.7-1.5 0-2.7 1.2-2.7 2.7 0 .5.2 1 .4 1.5l-6 6c-.4-.3-.9-.4-1.5-.4-1.5 0-2.7 1.2-2.7 2.7 0 1.5 1.2 2.7 2.7 2.7s2.7-1.2 2.7-2.7c0-.4-.1-.8-.2-1.1l6.1-6.1c.3.2.7.2 1.1.2.4 0 .9-.1 1.2-.3l5.9 5.9c-.3.4-.4.9-.4 1.4 0 1.5 1.2 2.7 2.7 2.7 1.5 0 2.7-1.2 2.7-2.7 0-.3-.1-.7-.2-1l5.3-4.2c.4.2.8.4 1.3.4s1-.2 1.5-.4l5.3 4.1c-.2.3-.3.7-.3 1.1 0 1.5 1.2 2.7 2.7 2.7 1.5 0 2.7-1.2 2.7-2.7 0-.5-.1-.9-.4-1.3l6-6c.4.2.8.3 1.3.3s.9-.1 1.3-.3l6 6c-.2.4-.4.8-.4 1.3 0 1.5 1.2 2.7 2.7 2.7 1.5 0 2.7-1.2 2.7-2.7 0-1.6-1.2-2.8-2.7-2.8zM5.1 61.5c-.6 0-1.1-.5-1.1-1.2 0-.6.5-1.2 1.2-1.2.6 0 1.2.5 1.2 1.2-.1.7-.6 1.2-1.3 1.2zm8.5-10.8c0-.6.5-1.2 1.2-1.2.6 0 1.2.5 1.2 1.2 0 .6-.5 1.2-1.2 1.2-.6 0-1.2-.6-1.2-1.2zm10.6 10.8c-.6 0-1.2-.5-1.2-1.2 0-.6.5-1.2 1.2-1.2.6 0 1.2.5 1.2 1.2s-.6 1.2-1.2 1.2zm8-8.6c0-.6.5-1.2 1.2-1.2.6 0 1.2.5 1.2 1.2 0 .3-.1.6-.3.8-.2.2-.5.3-.8.3-.8.1-1.3-.5-1.3-1.1zm10.3 8.6c-.6 0-1.2-.5-1.2-1.2 0-1.6 2.4-1.6 2.4 0 0 .7-.6 1.2-1.2 1.2zm8.4-10.8c0-.6.5-1.2 1.2-1.2.6 0 1.2.5 1.2 1.2 0 .6-.5 1.2-1.2 1.2s-1.2-.6-1.2-1.2zm10.7 10.8c-.6 0-1.2-.5-1.2-1.2 0-.6.5-1.2 1.2-1.2.6 0 1.2.5 1.2 1.2s-.5 1.2-1.2 1.2zM1.5 31.6v12.2c0 1.9 1.6 3.4 3.5 3.4h55.3c1.9 0 3.5-1.5 3.5-3.4V31.6c0-1.9-1.6-3.4-3.5-3.4H54l1-2.2c2.1-.3 6.4-1.1 9.2-3.6 2.2-1.9-.7-5.4-3-3.3-2 1.8-6.3 2.7-7.1 2.3L50 19.5c-.9-.4-1.7-2.6-1.9-3.6-.1-.3-.3-.5-.5-.5-.3-.1-.5 0-.7.2-.7.7-1.5 1.4-2.3 2.1-.3.2-.3.6-.2.9.7 1.7 1.2 2.5 1.7 3.2l-3 6.3h-2.7v-7.9c1.6-1 3.1-2.1 4.4-3.2.9-.8 1.8-1.6 2.5-2.4C49 12.8 50.2 11 51 9.1c.7-1.5.1-3.3-1.3-4-1.6-.8-3.6-.2-4.3 1.5-1.6 3.6-5.6 6.6-7.9 8.1-.2.1-.5.2-.7.2h-7.7c-.3 0-.5-.1-.7-.2-1.8-1.2-6.2-4.3-7.9-8.1-.7-1.6-2.7-2.3-4.3-1.5-1.4.7-2 2.5-1.3 4 .8 1.8 2.1 3.7 3.7 5.5.8.8 1.6 1.6 2.5 2.4 1.3 1.1 2.9 2.2 4.4 3.2v7.9h-2.7l-3-6.3s0-.1.1-.1c.5-.7 1.1-1.5 1.8-3.1.1-.3 0-.6-.2-.9-.8-.7-1.6-1.4-2.3-2.1-.2-.2-.5-.3-.7-.2-.3.1-.5.3-.5.5-.3 1.1-1.4 3.2-2.1 3.5l-4.1 1.9c-.2.1-.4.1-.6.1-1.6-.2-4.6-.8-6.4-2.4-2.3-2.1-5.1 1.4-3 3.3 2.8 2.5 7.1 3.3 9.2 3.6l1 2.2H5c-1.9 0-3.5 1.6-3.5 3.5zm60.8 0v12.2c0 1.1-.9 1.9-2 1.9H5c-1.1 0-2-.9-2-1.9V31.6c0-1.1.9-1.9 2-1.9h55.3c1.1-.1 2 .8 2 1.9zM47.6 22c.3-.7-.5-.7-1.6-3.5.4-.3.8-.7 1.2-1 .4 1.1 1.2 2.8 2.4 3.3l4.1 1.9c1.9.9 6.9-.9 8.7-2.5.8-.7 1.7.5 1 1.1-2.7 2.4-7 3.1-8.8 3.3-.3 0-.5.2-.6.4l-1.5 3.2h-7.6l2.7-6.2zm-20.8-2.8c-1.6-1-3.2-2.1-4.6-3.3-.9-.7-1.7-1.5-2.4-2.3-1.6-1.7-2.7-3.4-3.5-5-.3-.8 0-1.7.7-2.1.8-.4 1.9-.1 2.2.8 1.7 4 6 7.2 8.4 8.7.5.3 1 .4 1.5.4h7.7c.5 0 1.1-.2 1.5-.4 2.4-1.5 6.7-4.7 8.4-8.7.4-.8 1.4-1.2 2.2-.8.7.4 1 1.3.6 2.1-.7 1.7-1.9 3.4-3.5 5-.7.8-1.5 1.5-2.4 2.3-1.4 1.2-2.9 2.3-4.6 3.3-.2.1-.4.4-.4.6v8.3H27.1v-8.3c0-.2-.1-.5-.3-.6zM12.1 25c-.1-.2-.3-.4-.6-.4-1.7-.2-6.1-.9-8.8-3.3-.7-.6.2-1.8 1-1.1 2.1 1.8 5.4 2.5 7.2 2.8.5.1 1 0 1.5-.2 3.8-1.9 4.6-1.8 5.3-2.9.4-.7.9-1.3 1.3-2.3.4.4.8.7 1.2 1-1.1 2.4-2.2 2.6-1.8 3.4l2.8 6.1h-7.6L12.1 25z" fill="#c1090b" class="color000000 svgShape"></path><path d="M15.2 36.2h-2.7l-.8-2.5c-.1-.3-.4-.5-.7-.5-.3 0-.6.2-.7.5l-.8 2.5H6.7c-.3 0-.6.2-.7.5-.1.3 0 .7.3.8L8.5 39l-.8 2.5c-.1.3 0 .6.3.8.3.2.6.2.9 0l2.2-1.6 2.2 1.6c.1.1.3.1.4.1.2 0 .3 0 .4-.1.3-.2.4-.5.3-.8l-.8-2.5 2.2-1.5c.3-.2.4-.5.3-.8-.3-.3-.5-.5-.9-.5zm-3.3 2.9.3.8-.8-.5c-.1-.1-.3-.1-.4-.1-.2 0-.3 0-.4.1l-.8.5.3-.8c.1-.3 0-.7-.3-.9l-.8-.5h.9c.3 0 .6-.2.7-.5l.3-.9.3.9c.1.3.4.5.7.5h.9l-.7.5c-.2.2-.3.5-.2.9zM29.8 36.2H27l-.8-2.5c-.1-.3-.4-.5-.7-.5s-.6.2-.7.5l-.8 2.5h-2.7c-.3 0-.6.2-.7.5-.1.3 0 .7.3.8l2.2 1.5-.8 2.5c-.1.3 0 .6.3.8.3.2.6.2.9 0l2.2-1.6 2.2 1.6c.1.1.3.1.4.1.2 0 .3 0 .4-.1.3-.2.4-.5.3-.8l-1-2.4 2.2-1.5c.3-.2.4-.5.3-.8-.1-.4-.4-.6-.7-.6zm-3.4 2.9.3.8-.8-.5c-.1-.1-.3-.1-.4-.1s-.3 0-.4.1l-.8.5.3-.8c.1-.3 0-.7-.3-.9l-.7-.5h.9c.3 0 .6-.2.7-.5l.3-.9.3.9c.1.3.4.5.7.5h.9l-.7.5c-.3.2-.4.5-.3.9zM44.3 36.2h-2.7l-.8-2.5c-.1-.3-.4-.5-.7-.5s-.6.2-.7.5l-.8 2.5h-2.7c-.3 0-.6.2-.7.5-.1.3 0 .7.3.8l2.2 1.5-.8 2.5c-.1.3 0 .6.3.8.3.2.6.2.9 0l2.2-1.6 2.2 1.6c.1.1.3.1.4.1.2 0 .3 0 .4-.1.3-.2.4-.5.3-.8l-.8-2.5 2.2-1.5c.3-.2.4-.5.3-.8-.4-.3-.7-.5-1-.5zm-3.4 2.9.3.8-.8-.5c-.1-.1-.3-.1-.4-.1-.2 0-.3 0-.4.1l-.8.5.3-.8c.1-.3 0-.7-.3-.9l-.7-.5h.9c.3 0 .6-.2.7-.5l.3-.9.3.9c.1.3.4.5.7.5h.9l-.7.5c-.3.2-.4.5-.3.9zM49.5 36.7c-.1.3 0 .7.3.8L52 39l-.8 2.5c-.1.3 0 .6.3.8.3.2.6.2.9 0l2.2-1.6 2.2 1.6c.1.1.3.1.4.1.2 0 .3 0 .4-.1.3-.2.4-.5.3-.8l-.9-2.4 2.2-1.5c.3-.2.4-.5.3-.8-.1-.3-.4-.5-.7-.5h-2.7l-.8-2.5c-.1-.3-.4-.5-.7-.5-.3 0-.6.2-.7.5l-.9 2.4h-2.7c-.4 0-.7.2-.8.5zm4 1c.3 0 .6-.2.7-.5l.3-.9.3.9c.1.3.4.5.7.5h.9l-.7.5c-.3.2-.4.5-.3.9l.3.8-.8-.5c-.3-.2-.6-.2-.9 0l-.8.5.3-.8c.1-.3 0-.7-.3-.9l-.7-.5h1zM32.7 14c3 0 5.5-2.5 5.5-5.5S35.7 3 32.7 3s-5.5 2.5-5.5 5.5c0 3.1 2.4 5.5 5.5 5.5zm0-9.5c2.2 0 4 1.8 4 4s-1.8 4-4 4-4-1.8-4-4 1.8-4 4-4zM52.8 19.8c1.9.9 4.2 0 5-1.8 1.2-2.5-.7-5.4-3.4-5.4-1.5 0-2.8.9-3.4 2.2-.9 1.8-.1 4.1 1.8 5zm-.5-4.4c.4-.8 1.2-1.3 2.1-1.3 1.7 0 2.8 1.7 2.1 3.3-.5 1.1-1.9 1.6-3 1.1-1.2-.6-1.7-2-1.2-3.1zM11.6 20.1c2.7 0 4.6-2.9 3.4-5.4-.6-1.3-2-2.2-3.4-2.2-1.5 0-3 .9-3.6 2.5-.8 2.5 1 5.1 3.6 5.1zm-2.1-4.6c.3-.9 1.2-1.5 2.1-1.5.9 0 1.7.5 2.1 1.3.7 1.5-.4 3.3-2.1 3.3-1.5 0-2.7-1.6-2.1-3.1z" fill="#c1090b" class="color000000 svgShape"></path></svg>