<svg xmlns="http://www.w3.org/2000/svg" viewBox="0 0 512 512" id="PublicRelations"><path fill="#c1090b" d="M439.23 433.39c-.05-.34-4.8-34.28-5.47-45.42-1.61-26.91-18.84-47.46-42.86-51.14-5.1-.78-12.64-1.44-19.63-1.86 15.84-6.64 27.33-26.16 27.1-43-.83-50.41-79.53-50.41-80.36 0-.23 16.87 11.32 36.46 27.22 43-11 .7-22.16 1.68-30.9 3.83C300 325.73 282 325.28 262.4 324.16c18.9-5.77 33.17-28.65 32.85-48-.9-54.61-86.24-54.6-87.14 0-.33 19.43 14 42.4 33 48.08-20.07 1.3-38 1.2-52.6 14.57-8.78-2.11-19.67-3.06-30.63-3.76 15.9-6.6 27.45-26.17 27.22-43-.83-50.41-79.53-50.41-80.36 0-.23 16.83 11.26 36.36 27.1 43-7 .42-14.53 1.08-19.63 1.86-24 3.6-41.21 24.15-42.84 51.09-.67 11.14-5.42 45.08-5.47 45.42a16.83 16.83 0 0 0 16.68 19h16.08a7.57 7.57 0 0 0 7.5-6.93 7.42 7.42 0 0 0 1.89.24h61.1a17.7 17.7 0 0 0 13.85 6.64h17.2c4.54-.06 7.37-3.53 7.65-7.88a7.63 7.63 0 0 0 2.71.5h86a7.58 7.58 0 0 0 2.71-.5c.27 4.34 3.12 7.82 7.65 7.88h17.78a17.65 17.65 0 0 0 13.87-6.69h60.51a7.42 7.42 0 0 0 1.89-.24 7.56 7.56 0 0 0 7.5 6.93h16.08c9.85.22 18.17-9.24 16.68-18.98zM333 292c0-13.3 10.59-23 25.18-23s25.18 9.65 25.18 23c0 13.85-11.62 30.76-25.18 30.76S333 305.82 333 292zm-109.9-15.84c0-15.13 12-26.11 28.57-26.11s28.57 11 28.57 26.11c0 19.23-15.63 34.72-28.57 34.72s-28.56-15.52-28.56-34.75zM119.76 292c0-13.3 10.59-23 25.18-23s25.18 9.65 25.18 23c0 13.85-11.62 30.76-25.18 30.76s-25.18-16.94-25.18-30.76zm-6.86 97.3c-.31-9.12-13.3-10.07-14.91-1.07l-7.74 49.17h-9.67a1.83 1.83 0 0 1-1.81-2c.34-2.45 4.88-35 5.57-46.5 1.2-20 13-34.59 30.16-37.21a229.8 229.8 0 0 1 63.19.31 66.11 66.11 0 0 0-8.82 30.2c-.58 10.79-4.32 40.81-5.29 48.51h-50.13zm211.89 47.16a2.75 2.75 0 0 1-2.09.94h-11.33l-8.65-54.92a7.5 7.5 0 0 0-14.91 1.07L287.2 430H216l-.61-46.47a7.5 7.5 0 0 0-14.91-1.07l-8.65 54.92H181a2.79 2.79 0 0 1-2.78-3.05c.33-2.52 4.92-38.62 5.61-51.34 1.22-22.37 14.81-39.14 33.82-41.73 21.74-2.84 46-3.18 67.72 0 19.27 2.94 32.6 19.35 33.94 41.78.76 12.72 5.79 48.69 6.15 51.28a2.75 2.75 0 0 1-.67 2.11zm99.12.32a1.76 1.76 0 0 1-1.36.62h-9.67l-7.74-49.17a7.5 7.5 0 0 0-14.91 1.07l-.55 41.41h-49.56c-1-7.34-5.17-37.7-5.82-48.55a65.83 65.83 0 0 0-9-30.13 229.54 229.54 0 0 1 63.37-.34c17.12 2.62 29 17.23 30.16 37.21.69 11.53 5.23 44.05 5.57 46.5a1.79 1.79 0 0 1-.49 1.35zm-1.78-380.85H81.28A30.91 30.91 0 0 0 50.41 86.8v61.05a30.91 30.91 0 0 0 30.87 30.87h61.89l.24 33.38c0 6.75 8.65 10.05 13.1 4.93l34.08-38.31h38l16.31 36.39a7.5 7.5 0 0 0 13.69 0l16.32-36.39h39.32L348.27 217c4.43 5.11 13.15 1.83 13.11-4.93l.23-33.38h60.52A30.91 30.91 0 0 0 453 147.85v-61a30.91 30.91 0 0 0-30.87-30.92zM438 147.85a15.89 15.89 0 0 1-15.88 15.87h-68a7.51 7.51 0 0 0-7.5 7.45l-.15 21.32-23.36-26.25a7.49 7.49 0 0 0-5.6-2.52H270a7.51 7.51 0 0 0-6.84 4.43l-11.46 25.56-11.46-25.56a7.51 7.51 0 0 0-6.85-4.43h-46.17a7.49 7.49 0 0 0-5.6 2.52l-23.35 26.25-.15-21.32a7.51 7.51 0 0 0-7.5-7.45H81.28a15.89 15.89 0 0 1-15.87-15.87v-61a15.89 15.89 0 0 1 15.87-15.92h340.85A15.89 15.89 0 0 1 438 86.8z" class="color404040 svgShape"></path><path fill="#c1090b" d="M203.21 106.51a10.92 10.92 0 0 0-10.91 10.91c.6 14.47 21.22 14.47 21.82 0a10.92 10.92 0 0 0-10.91-10.91zm48.5 0a10.92 10.92 0 0 0-10.91 10.91c.6 14.47 21.22 14.47 21.82 0a10.92 10.92 0 0 0-10.91-10.91zm48.5 0a10.92 10.92 0 0 0-10.91 10.91c.6 14.47 21.22 14.47 21.82 0a10.92 10.92 0 0 0-10.91-10.91z" class="color404040 svgShape"></path></svg>