<svg xmlns="http://www.w3.org/2000/svg" viewBox="0 0 64 64" id="Collaboration"><path d="M57 22h-1.726A7.976 7.976 0 0 0 58 16c0-4.411-3.589-8-8-8s-8 3.589-8 8a7.976 7.976 0 0 0 2.726 6H43c-3.86 0-7 3.141-7 7v5h-8v-5c0-3.859-3.14-7-7-7h-1.726A7.976 7.976 0 0 0 22 16c0-4.411-3.589-8-8-8s-8 3.589-8 8a7.976 7.976 0 0 0 2.726 6H7c-3.86 0-7 3.141-7 7v14a1 1 0 0 0 1 1h5v17a1 1 0 0 0 1 1h14a1 1 0 0 0 1-1V40.974A4.948 4.948 0 0 0 25 42h14c1.13 0 2.162-.391 3-1.026V61a1 1 0 0 0 1 1h14a1 1 0 0 0 1-1V44h5a1 1 0 0 0 1-1V29c0-3.859-3.14-7-7-7zm-13-6c0-3.309 2.691-6 6-6s6 2.691 6 6-2.691 6-6 6-6-2.691-6-6zM8 16c0-3.309 2.691-6 6-6s6 2.691 6 6-2.691 6-6 6-6-2.691-6-6zm14 21v-8h-2v31h-5V42h-2v18H8V29H6v13H2V29c0-2.757 2.243-5 5-5h14c2.757 0 5 2.243 5 5v6a1 1 0 0 0 1 1h4v4h-6c-1.654 0-3-1.346-3-3zm40 5h-4V29h-2v31h-5V42h-2v18h-5V29h-2v8c0 1.654-1.346 3-3 3h-6v-4h4a1 1 0 0 0 1-1v-6c0-2.757 2.243-5 5-5h14c2.757 0 5 2.243 5 5v13z" fill="#c1090b" class="color000000 svgShape"></path><path d="M42.7 8.707L45.707 5.7a.999.999 0 0 0 0-1.414l-2.993-2.993L41.3 2.707 42.593 4h-7.6a.997.997 0 0 0-.707.293l-2.293 2.293L29.7 4.293A.997.997 0 0 0 28.993 4h-7.6l1.293-1.293-1.414-1.414-2.993 2.993a.999.999 0 0 0 0 1.414l3.007 3.007L22.7 7.293 21.407 6h7.172l2 2-2 2H24v2h4.993c.265 0 .52-.105.707-.293l2.293-2.293 2.293 2.293a1 1 0 0 0 .707.293H40v-2h-4.593l-2-2 2-2h7.172l-1.293 1.293L42.7 8.707z" fill="#c1090b" class="color000000 svgShape"></path></svg>