<svg xmlns="http://www.w3.org/2000/svg" viewBox="0 0 128 128" id="Branding"><g fill="#c43f40" class="color3fbbc4 svgShape"><path d="m60.247 21.02-.599 3.491c-.1.578.241.826.761.553l3.133-1.648 3.132 1.648c.52.273.859.025.761-.553l-.598-3.491 2.534-2.474c.419-.409.29-.81-.291-.893l-3.501-.51-1.568-3.176c-.26-.528-.679-.528-.939 0l-1.566 3.176-3.502.51c-.58.083-.711.483-.29.893l2.533 2.474zM35.344 27.479l3.43.874L40 31.676c.204.55.622.595.936.099l1.889-2.994 3.537-.139c.586-.024.757-.409.383-.86l-2.264-2.725.959-3.408c.159-.564-.153-.847-.699-.629l-3.288 1.311-2.944-1.967c-.488-.328-.853-.118-.813.47l.231 3.534-2.778 2.191c-.461.364-.375.776.195.92zM21.116 42.415l-1.311 3.287c-.217.546.064.858.631.699l3.406-.959 2.724 2.266c.451.374.836.203.859-.384l.139-3.537 2.993-1.89c.497-.314.452-.732-.098-.936l-3.323-1.229-.873-3.431c-.145-.567-.556-.655-.92-.195l-2.191 2.779-3.533-.23c-.587-.039-.798.324-.47.813l1.967 2.947zM22.945 68.309c.578.1.826-.242.554-.76l-1.648-3.134 1.647-3.133c.273-.521.025-.861-.553-.762l-3.49.599-2.471-2.535c-.409-.421-.81-.29-.895.291l-.508 3.504-3.175 1.566c-.528.261-.528.681 0 .939l3.175 1.566.508 3.504c.085.58.485.71.895.289l2.471-2.532 3.49.598zM30.209 87.026l-2.994-1.89-.141-3.538c-.022-.587-.408-.756-.858-.382l-2.725 2.263-3.407-.957c-.563-.16-.846.153-.629.699l1.312 3.288-1.967 2.947c-.328.487-.118.853.469.813l3.534-.231 2.191 2.778c.363.461.774.374.919-.196l.874-3.43 3.321-1.228c.55-.204.596-.622.101-.936zM45.755 100.538l-3.536-.139-1.892-2.992c-.313-.498-.73-.451-.934.098l-1.229 3.322-3.429.874c-.568.144-.656.557-.196.921l2.779 2.192-.23 3.534c-.04.587.324.798.813.469l2.944-1.967 3.287 1.311c.545.216.857-.064.698-.631l-.957-3.405 2.263-2.726c.375-.452.204-.836-.381-.861zM66.137 108.512l.597-3.491c.1-.579-.241-.826-.76-.555l-3.132 1.649-3.134-1.647c-.521-.273-.859-.024-.762.553l.598 3.491-2.532 2.474c-.42.406-.29.808.291.894l3.503.51 1.566 3.176c.258.527.681.528.938-.001l1.566-3.177 3.501-.508c.581-.086.712-.485.289-.896l-2.529-2.472zM91.037 102.053l-3.427-.875-1.229-3.323c-.202-.549-.622-.594-.935-.101l-1.888 2.996-3.538.142c-.587.021-.757.408-.383.858l2.264 2.725-.958 3.408c-.159.563.153.845.699.629l3.288-1.311 2.945 1.968c.486.327.853.117.812-.472l-.23-3.534 2.776-2.191c.461-.364.374-.775-.196-.919zM105.267 87.116l1.309-3.287c.218-.545-.063-.859-.63-.699l-3.405.957-2.726-2.264c-.449-.374-.835-.202-.858.381l-.139 3.539-2.994 1.891c-.496.313-.449.731.1.935l3.321 1.229.875 3.431c.143.565.555.654.919.195l2.192-2.779 3.534.23c.585.039.798-.324.467-.813l-1.965-2.946zM113.977 64.646l-3.175-1.567-.51-3.503c-.083-.579-.484-.711-.895-.289l-2.471 2.531-3.491-.597c-.578-.099-.825.242-.554.759l1.648 3.135-1.647 3.135c-.272.521-.024.858.553.76l3.491-.598 2.474 2.535c.406.418.808.289.893-.29l.511-3.504 3.175-1.568c.526-.259.528-.68-.002-.939zM96.174 42.503l2.992 1.891.142 3.538c.023.587.408.756.858.383l2.724-2.264 3.41.958c.562.158.844-.154.628-.698l-1.31-3.289 1.967-2.946c.325-.487.116-.853-.472-.813l-3.533.231-2.192-2.778c-.361-.461-.774-.374-.919.196l-.874 3.429-3.322 1.228c-.55.203-.594.622-.099.934zM80.626 28.99l3.537.14 1.891 2.995c.313.496.731.449.935-.099l1.229-3.322 3.432-.875c.565-.145.653-.556.194-.919l-2.778-2.194.23-3.534c.039-.585-.325-.797-.814-.468l-2.945 1.967-3.286-1.311c-.544-.217-.857.063-.698.63l.957 3.407-2.263 2.726c-.376.45-.206.835.379.857z" fill="#c1090b" class="color000000 svgShape"></path><path d="M122.388 51.606c-1.521-2.012-2.96-3.912-3.496-5.572-.581-1.803-.535-4.286-.484-6.917.082-4.286.173-9.145-2.612-13.016-2.837-3.926-7.489-5.344-11.595-6.594-2.469-.751-4.799-1.46-6.276-2.544-1.44-1.056-2.811-3.054-4.262-5.169-2.453-3.575-5.232-7.625-9.871-9.146-1.195-.392-2.442-.583-3.813-.583-3.181 0-6.239 1.067-9.197 2.101-2.496.869-4.852 1.692-6.782 1.692-1.931 0-4.287-.824-6.783-1.695-2.955-1.032-6.01-2.099-9.187-2.099-1.37 0-2.619.189-3.819.581-4.646 1.522-7.426 5.574-9.879 9.149-1.452 2.115-2.824 4.114-4.267 5.173-1.474 1.081-3.804 1.79-6.271 2.542-4.102 1.25-8.75 2.666-11.583 6.583-2.797 3.879-2.705 8.74-2.622 13.029.05 2.629.099 5.111-.482 6.914-.535 1.659-1.974 3.56-3.496 5.57C2.98 55.083 0 59.021 0 64c0 4.977 2.982 8.917 5.612 12.394 1.522 2.012 2.96 3.912 3.495 5.57.578 1.798.53 4.28.48 6.907-.082 4.29-.175 9.153 2.62 13.03 2.831 3.923 7.483 5.337 11.586 6.586 2.468.75 4.8 1.458 6.272 2.54 1.442 1.059 2.813 3.058 4.266 5.174 2.453 3.577 5.233 7.632 9.874 9.15 1.202.394 2.45.584 3.816.584 3.174 0 6.229-1.066 9.184-2.098 2.499-.872 4.858-1.695 6.795-1.695 1.93 0 4.284.821 6.777 1.692 2.958 1.032 6.017 2.101 9.201 2.101 1.372 0 2.621-.191 3.819-.587 4.632-1.516 7.413-5.57 9.867-9.149 1.451-2.114 2.822-4.113 4.265-5.175 1.47-1.076 3.801-1.784 6.27-2.534 4.105-1.248 8.759-2.663 11.591-6.584 2.79-3.88 2.699-8.737 2.617-13.023-.051-2.631-.097-5.115.485-6.92.534-1.652 1.971-3.551 3.49-5.56C125.018 72.925 128 68.981 128 64c0-4.978-2.98-8.917-5.612-12.394zm-7.441 29.085c-1.857 5.769.938 13.984-2.516 18.787-3.502 4.848-12.141 4.681-16.957 8.207-4.761 3.502-7.255 11.854-12.974 13.727-.813.269-1.654.378-2.522.378-5.014 0-10.767-3.792-15.979-3.792-5.221 0-10.979 3.792-15.979 3.792-.873 0-1.708-.109-2.528-.378-5.719-1.872-8.213-10.229-12.976-13.727-4.809-3.528-13.451-3.361-16.951-8.209-3.461-4.802-.663-13.017-2.516-18.785C11.256 75.13 4.143 70.165 4.143 64c0-6.169 7.113-11.127 8.907-16.692 1.858-5.768-.945-13.984 2.516-18.785 3.507-4.847 12.143-4.686 16.951-8.214C37.28 16.813 39.774 8.46 45.493 6.587c.82-.268 1.662-.377 2.537-.377 5 0 10.758 3.792 15.97 3.792S74.97 6.21 79.979 6.21c.868 0 1.709.11 2.522.377 5.719 1.875 8.213 10.226 12.974 13.722 4.816 3.528 13.455 3.367 16.957 8.214 3.454 4.801.658 13.018 2.516 18.785 1.798 5.565 8.909 10.527 8.909 16.692-.001 6.169-7.112 11.133-8.91 16.691z" fill="#c1090b" class="color000000 svgShape"></path><path d="M64 29.483c-19.059 0-34.507 15.453-34.507 34.517 0 19.063 15.448 34.514 34.507 34.514 19.057 0 34.507-15.451 34.507-34.514 0-19.063-15.45-34.517-34.507-34.517zm0 64.886c-16.742 0-30.363-13.624-30.363-30.369 0-16.747 13.621-30.371 30.363-30.371 16.743 0 30.363 13.624 30.363 30.371 0 16.745-13.62 30.369-30.363 30.369z" fill="#c1090b" class="color000000 svgShape"></path><path d="M49.211 62.127c0-3.091-2.005-3.127-4.553-3.127H42v12.869h2.658c3.18 0 4.553-.127 4.553-3.67 0-1.662-.216-3.072-2.131-3.072v-.126c1.716-.163 2.131-1.446 2.131-2.874zm-4.589 7.898v-3.958c1.265 0 1.59.018 1.59 1.843 0 1.338.017 2.26-1.59 2.115zm0-5.801v-3.38c1.481-.09 1.59.434 1.59 1.699 0 1.934-.65 1.627-1.59 1.681zM58.442 67.387c0-1.844-.849-2.386-2.296-2.422v-.037c1.627-.271 2.296-1.318 2.296-2.928 0-2.71-1.699-3-4.554-3H51v12.869h2.87v-5.874h.488c.542 0 1.084.452 1.084 1.355v2.729c0 .506.072 1.264.434 1.789h3.018c-.361-.525-.451-1.283-.451-1.789v-2.692zM53.87 64.15v-3.307c1.374 0 1.572.451 1.572 1.645 0 1.211-.216 1.662-1.572 1.662zM62.18 59l-2.187 12.869h2.529l.488-3.164h1.626l.344 3.164h2.981L66.3 59h-4.12zm1.156 7.754.523-5.729h.036l.524 5.729h-1.083zM75.476 68.362h-.037L73.524 59H69v12.869h2.718V61.115h.036l2.223 10.754h3.848V59h-2.349zM82.501 59H79v12.869h3.501c3.776 0 4.499-1.446 4.499-3.887v-4.59C87 59.543 85.862 59 82.501 59zm1.5 9.236c0 1.229-.127 1.789-1.591 1.789v-9.182c1.519 0 1.591.379 1.591 2.097v5.296z" fill="#c1090b" class="color000000 svgShape"></path></g></svg>